# xmcd
#
# Track frame offsets:
#	182
#	17787
#	31880
#	42100
#	55272
#	70735
#	84217
#	99735
#	112317
#	129792
#	140715
#	153397
#
# Disc length: 2231 seconds
#
# Revision: 2
# Processed by: cddbd v1.5.2PL0 Copyright (c) Steve Scherf et al.
# Submitted via: audiograbber 1.83.01
#
DISCID=9b08b50c
DTITLE=Sampler Country - Not fade away (remembering Buddy Holly)
DYEAR=1996
DGENRE=Country
TTITLE0=Holly, Buddy and The Hollies - Peggy Sue got married
TTITLE1=Mavericks, The - True love ways
TTITLE2=Griffith, Nanci and The Crickets - Well... All right
TTITLE3=Lobos, Los - Midnight shift
TTITLE4=Band, The and The Crickets - Not fade away
TTITLE5=Tractors, The - Think it over
TTITLE6=Carpenter, Mary Chapin and Kevin Montgomery - Wishing
TTITLE7=Ely, Joe and Todd Snider - Oh, boy!
TTITLE8=Stuart, Marty and Steve Earle - Crying, waiting, hoping
TTITLE9=Bogguss, Suzy and Dave Edmunds - It doesn't matter anymore
TTITLE10=Nitty Gritty Dirt Band - Maybe baby
TTITLE11=Jennings, Waylon and Mark Knopfler - Learning the game
EXTD=
EXTT0=
EXTT1=
EXTT2=
EXTT3=
EXTT4=
EXTT5=
EXTT6=
EXTT7=
EXTT8=
EXTT9=
EXTT10=
EXTT11=
PLAYORDER=
